<svg id="fuwasegu" viewBox="0 0 662.403 131.738" xmlns="http://www.w3.org/2000/svg"><g id="svgGroup" stroke-linecap="round" fill-rule="evenodd" font-size="9pt" stroke="#000" stroke-width="0.25mm" style="stroke:#f967f4;"><path d="M 28.809 45.02 L 29.492 42.773 L 28.516 43.262 L 26.953 44.043 L 25.488 44.775 Q 24.924 45.057 24.759 45.107 A 0.204 0.204 0 0 1 24.707 45.117 A 1.632 1.632 0 0 1 23.643 44.722 A 2.215 2.215 0 0 1 23.486 44.58 A 2.242 2.242 0 0 1 23.192 44.222 Q 23.029 43.973 22.975 43.713 A 1.266 1.266 0 0 1 22.949 43.457 Q 22.949 42.773 23.975 41.65 Q 25 40.527 26.416 39.453 A 45.34 45.34 0 0 1 28.513 37.952 A 39.634 39.634 0 0 1 29.199 37.5 A 34.607 34.607 0 0 1 29.84 37.097 Q 30.737 36.548 31.25 36.328 A 680.573 680.573 0 0 1 34.278 24.658 A 73.144 73.144 0 0 1 38.379 13.281 Q 35.742 14.941 32.959 16.357 A 53.503 53.503 0 0 0 27.539 19.531 A 82.576 82.576 0 0 0 24.255 21.902 A 91.182 91.182 0 0 0 23.779 22.266 A 36.539 36.539 0 0 0 20.215 25.391 A 26.971 26.971 0 0 0 17.188 29.004 A 17.656 17.656 0 0 0 15.039 33.105 A 13.789 13.789 0 0 0 14.777 33.912 Q 14.546 34.713 14.505 35.301 A 3.861 3.861 0 0 0 14.502 35.352 Q 14.462 36.067 14.261 36.978 A 16.247 16.247 0 0 1 14.16 37.402 A 1.696 1.696 0 0 1 13.939 37.801 A 1.36 1.36 0 0 1 13.574 38.135 A 1.617 1.617 0 0 1 12.728 38.379 A 1.934 1.934 0 0 1 12.695 38.379 Q 12.207 38.379 11.768 38.086 Q 11.328 37.793 11.231 37.305 L 11.231 37.402 A 5.56 5.56 0 0 0 11.212 36.933 A 4.62 4.62 0 0 0 11.182 36.67 A 4.837 4.837 0 0 1 11.14 36.224 A 5.826 5.826 0 0 1 11.133 35.938 A 17.729 17.729 0 0 1 14.453 25.537 A 39.432 39.432 0 0 1 21.736 17.73 A 44.637 44.637 0 0 1 22.656 16.992 Q 27.539 13.184 33.106 10.205 A 382.325 382.325 0 0 1 37.752 7.758 Q 39.884 6.654 41.807 5.699 A 220.032 220.032 0 0 1 43.067 5.078 L 43.457 4.883 A 0.941 0.941 0 0 1 43.677 4.804 A 0.798 0.798 0 0 1 43.848 4.785 A 1.755 1.755 0 0 1 45.031 5.24 A 2.256 2.256 0 0 1 45.069 5.273 A 1.695 1.695 0 0 1 45.44 5.747 A 1.496 1.496 0 0 1 45.606 6.445 L 45.606 6.641 A 5172.561 5172.561 0 0 1 44.276 10.459 A 4707.797 4707.797 0 0 1 44.092 10.986 A 5044.007 5044.007 0 0 0 42.773 14.773 A 5617.444 5617.444 0 0 0 42.578 15.332 Q 41.113 20.02 39.844 24.707 Q 38.574 29.395 37.207 34.082 Q 40.43 33.203 43.701 32.91 Q 46.973 32.617 50.293 32.617 A 141.925 141.925 0 0 1 56.738 32.764 A 141.925 141.925 0 0 0 63.184 32.91 A 91.764 91.764 0 0 0 69.19 32.715 Q 72.168 32.52 75.098 31.836 A 222.797 222.797 0 0 1 78.418 22.217 Q 80.176 17.48 82.422 12.793 Q 83.203 11.23 83.985 9.57 A 20.073 20.073 0 0 1 85.266 7.245 A 17.649 17.649 0 0 1 85.742 6.543 A 1.262 1.262 0 0 1 86.657 5.974 A 1.84 1.84 0 0 1 86.914 5.957 A 1.795 1.795 0 0 1 87.791 6.191 A 2.333 2.333 0 0 1 88.037 6.348 A 1.266 1.266 0 0 1 88.549 7.196 A 1.94 1.94 0 0 1 88.574 7.52 A 0.685 0.685 0 0 1 88.557 7.639 Q 88.492 7.952 88.187 8.945 A 88.802 88.802 0 0 1 88.037 9.424 A 6166.925 6166.925 0 0 0 87.6 10.815 Q 87.207 12.067 86.719 13.623 A 392.402 392.402 0 0 1 85.889 16.235 A 516.233 516.233 0 0 1 84.961 19.092 A 1316.356 1316.356 0 0 1 84.009 21.985 A 1099.272 1099.272 0 0 1 83.106 24.707 L 81.543 29.395 Q 80.985 31.07 80.752 31.833 A 17.878 17.878 0 0 0 80.664 32.129 A 0.416 0.416 0 0 0 80.693 32.278 A 0.51 0.51 0 0 0 80.713 32.324 A 0.47 0.47 0 0 1 80.753 32.434 A 0.399 0.399 0 0 1 80.762 32.52 A 1.106 1.106 0 0 1 80.696 32.91 Q 80.583 33.213 80.274 33.398 A 717.804 717.804 0 0 0 78.784 38.123 A 842.16 842.16 0 0 0 77.246 43.115 Q 75.684 48.242 74.414 53.516 A 121.807 121.807 0 0 0 72.363 64.014 A 70.63 70.63 0 0 0 71.644 71.297 A 60.971 60.971 0 0 0 71.582 74.023 A 35.212 35.212 0 0 0 71.596 74.971 Q 71.619 75.818 71.68 76.855 A 12.73 12.73 0 0 0 72.266 80.029 A 7.644 7.644 0 0 0 72.909 81.5 A 6.181 6.181 0 0 0 73.682 82.568 A 2.989 2.989 0 0 0 75.188 83.456 Q 75.672 83.581 76.247 83.593 A 5.881 5.881 0 0 0 76.367 83.594 A 6.545 6.545 0 0 0 77.797 83.425 Q 78.9 83.177 80.176 82.568 A 64.173 64.173 0 0 0 84.375 80.371 A 68.671 68.671 0 0 0 86.067 79.374 Q 86.833 78.906 87.503 78.465 A 39.452 39.452 0 0 0 87.94 78.174 A 34.398 34.398 0 0 1 88.299 77.934 Q 89.267 77.296 89.617 77.176 A 0.426 0.426 0 0 1 89.746 77.148 A 1.281 1.281 0 0 1 90.487 77.39 A 1.958 1.958 0 0 1 90.82 77.686 A 2.174 2.174 0 0 1 91.108 78.078 Q 91.306 78.428 91.309 78.797 A 1.408 1.408 0 0 1 91.309 78.809 A 0.774 0.774 0 0 1 91.243 79.109 Q 91.145 79.342 90.901 79.604 A 3.192 3.192 0 0 1 90.82 79.688 A 32.828 32.828 0 0 1 89.607 80.75 Q 88.972 81.281 88.242 81.846 A 57.924 57.924 0 0 1 87.744 82.227 A 31.269 31.269 0 0 1 83.887 84.717 A 33.304 33.304 0 0 1 80.17 86.472 A 30.395 30.395 0 0 1 79.785 86.621 Q 77.843 87.361 76.163 87.4 A 8.017 8.017 0 0 1 75.977 87.402 Q 72.852 87.402 71.094 85.84 Q 69.336 84.277 68.408 81.934 A 17.653 17.653 0 0 1 67.352 77.867 A 20.383 20.383 0 0 1 67.236 76.855 A 65.466 65.466 0 0 1 67.053 74.243 A 48.462 48.462 0 0 1 66.992 71.875 A 60.517 60.517 0 0 1 67.234 66.589 A 74.966 74.966 0 0 1 67.627 63.086 Q 68.262 58.398 69.287 53.662 A 169.554 169.554 0 0 1 71.582 44.336 Q 72.852 39.746 74.024 35.742 A 46.447 46.447 0 0 1 67.725 36.865 A 104.09 104.09 0 0 1 61.377 37.354 A 137.661 137.661 0 0 1 55.029 37.5 Q 51.856 37.5 48.633 37.598 A 43.953 43.953 0 0 0 35.449 40.234 A 266.559 266.559 0 0 1 30.469 55.42 A 66.344 66.344 0 0 1 23.242 69.727 A 34.4 34.4 0 0 1 19.824 74.037 A 38.796 38.796 0 0 1 19.092 74.805 Q 16.699 77.246 13.819 79.053 Q 10.938 80.859 7.764 81.934 A 20.126 20.126 0 0 1 1.27 83.008 A 1.014 1.014 0 0 1 0.473 82.646 A 1.439 1.439 0 0 1 0.342 82.471 A 2.546 2.546 0 0 1 0.134 82.075 Q 0 81.751 0 81.445 Q 0 80.273 1.074 80.078 Q 3.028 79.59 4.785 79.199 A 17.22 17.22 0 0 0 6.825 78.605 A 22.375 22.375 0 0 0 8.496 77.93 A 24.119 24.119 0 0 0 16.162 72.021 A 43.435 43.435 0 0 0 21.826 63.721 A 65.231 65.231 0 0 0 25.879 54.297 A 224.35 224.35 0 0 0 27.802 48.384 A 187.233 187.233 0 0 0 28.809 45.02 Z M 452.93 0.098 L 453.125 0.098 A 38.854 38.854 0 0 1 459.375 2.393 A 21.438 21.438 0 0 1 463.773 5.114 A 19.552 19.552 0 0 1 464.697 5.908 A 16.116 16.116 0 0 1 468.36 10.84 A 13.55 13.55 0 0 1 469.534 14.723 A 17.734 17.734 0 0 1 469.727 17.383 A 18.481 18.481 0 0 1 468.945 22.656 A 42.048 42.048 0 0 1 464.086 33.266 A 47.368 47.368 0 0 1 463.526 34.131 A 108.579 108.579 0 0 1 455.371 44.873 A 195.026 195.026 0 0 1 446.094 54.932 A 265.159 265.159 0 0 0 439.568 61.754 A 228.046 228.046 0 0 0 437.207 64.355 Q 433.301 68.75 429.785 73.34 Q 426.27 77.93 423.242 83.008 L 422.656 83.984 A 0.965 0.965 0 0 1 421.979 84.446 A 1.576 1.576 0 0 1 421.68 84.473 Q 421.289 84.473 420.606 83.984 A 3.466 3.466 0 0 1 420.339 83.775 Q 420.078 83.547 419.98 83.342 A 0.549 0.549 0 0 1 419.922 83.105 A 12.031 12.031 0 0 1 420 81.783 Q 420.074 81.119 420.217 80.377 A 23.049 23.049 0 0 1 420.361 79.688 A 470.625 470.625 0 0 0 420.67 78.305 Q 420.791 77.763 420.896 77.279 A 232.186 232.186 0 0 0 421.094 76.367 A 113.53 113.53 0 0 1 423.145 68.262 Q 424.317 64.258 425.098 60.156 Q 426.172 55.273 427.051 50.488 A 153.017 153.017 0 0 0 428.516 40.723 Q 425.781 45.117 422.656 49.17 Q 419.531 53.223 416.406 57.324 A 448.894 448.894 0 0 1 408.643 67.188 A 252.97 252.97 0 0 1 400.488 76.758 A 144.376 144.376 0 0 1 397.559 79.98 Q 396.094 81.543 394.531 83.105 A 0.981 0.981 0 0 1 393.996 83.378 A 1.398 1.398 0 0 1 393.75 83.398 Q 393.367 83.398 392.744 83.008 A 6.648 6.648 0 0 1 392.383 82.764 Q 391.768 82.32 391.583 81.947 A 0.69 0.69 0 0 1 391.504 81.641 A 36.268 36.268 0 0 1 391.944 76.074 A 98.66 98.66 0 0 1 393.018 70.313 Q 393.653 67.383 394.336 64.551 Q 395.02 61.719 395.508 58.984 Q 396.485 54.395 397.412 49.902 A 354.387 354.387 0 0 1 399.414 40.82 Q 399.903 38.672 400.342 36.475 A 35.331 35.331 0 0 1 401.465 32.227 Q 401.708 31.578 402.356 31.468 A 1.679 1.679 0 0 1 402.637 31.445 A 0.986 0.986 0 0 1 402.895 31.484 Q 403.23 31.576 403.711 31.885 Q 404.395 32.324 404.395 32.715 A 8.262 8.262 0 0 1 404.376 33.25 Q 404.359 33.509 404.327 33.802 A 18.693 18.693 0 0 1 404.248 34.424 A 172.22 172.22 0 0 0 404.028 36.017 A 196.656 196.656 0 0 0 403.955 36.572 Q 403.809 37.695 403.613 38.77 A 46.407 46.407 0 0 0 403.481 39.534 Q 403.419 39.911 403.372 40.243 A 23.357 23.357 0 0 0 403.32 40.625 A 230.241 230.241 0 0 1 401.953 50.293 L 400.391 59.863 A 318.202 318.202 0 0 0 399.121 67.236 Q 398.535 70.898 397.461 74.512 A 1151.195 1151.195 0 0 0 405.029 64.502 Q 408.789 59.473 412.5 54.395 A 414.552 414.552 0 0 0 420.459 43.213 A 70.916 70.916 0 0 1 429.297 32.715 Q 429.688 31.738 430.762 31.738 Q 431.25 31.738 431.69 32.031 A 1.085 1.085 0 0 1 431.949 32.267 A 0.865 0.865 0 0 1 432.129 32.813 Q 432.187 32.813 432.211 32.795 A 0.037 0.037 0 0 0 432.227 32.764 A 0.039 0.039 0 0 1 432.251 32.727 Q 432.27 32.718 432.304 32.715 A 0.329 0.329 0 0 1 432.324 32.715 A 0.085 0.085 0 0 1 432.388 32.746 Q 432.435 32.796 432.465 32.93 A 1.19 1.19 0 0 1 432.471 32.959 A 2.775 2.775 0 0 1 432.504 33.163 Q 432.517 33.269 432.519 33.364 A 1.615 1.615 0 0 1 432.52 33.398 A 0.831 0.831 0 0 1 432.462 33.698 A 1.021 1.021 0 0 1 432.422 33.789 L 432.227 34.18 A 24.264 24.264 0 0 1 432.324 36.377 L 432.324 38.672 A 95.2 95.2 0 0 1 431.348 52.344 Q 430.371 59.082 429.004 65.918 A 98.839 98.839 0 0 1 433.057 60.986 A 97.593 97.593 0 0 1 437.403 56.348 A 182.836 182.836 0 0 1 439.131 54.567 Q 439.899 53.785 440.749 52.936 A 325.836 325.836 0 0 1 442.529 51.172 Q 445.508 48.242 448.633 44.922 Q 451.758 41.602 454.785 38.037 A 78.983 78.983 0 0 0 459.635 31.725 A 72.274 72.274 0 0 0 460.254 30.811 A 43.7 43.7 0 0 0 462.924 26.252 A 36.475 36.475 0 0 0 464.16 23.535 A 21.411 21.411 0 0 0 465.212 20.234 A 15.957 15.957 0 0 0 465.625 16.699 A 11.963 11.963 0 0 0 464.996 12.762 A 10.587 10.587 0 0 0 463.379 9.766 A 14.745 14.745 0 0 0 459.619 6.445 A 45.885 45.885 0 0 0 455.176 4.004 A 44.717 44.717 0 0 0 454.032 3.592 A 39.767 39.767 0 0 0 453.662 3.467 A 11.227 11.227 0 0 1 452.885 3.177 A 8.769 8.769 0 0 1 452.344 2.93 Q 451.475 2.543 451.465 1.679 A 1.743 1.743 0 0 1 451.465 1.66 A 1.131 1.131 0 0 1 451.564 1.212 Q 451.635 1.045 451.759 0.873 A 2.709 2.709 0 0 1 451.953 0.635 A 2.314 2.314 0 0 1 452.228 0.375 Q 452.387 0.249 452.546 0.181 A 0.96 0.96 0 0 1 452.93 0.098 Z M 286.996 73.051 A 0.87 0.87 0 0 0 287.11 72.656 A 1.471 1.471 0 0 0 286.97 72.028 A 1.811 1.811 0 0 0 286.67 71.582 A 1.809 1.809 0 0 0 286.529 71.441 A 1.293 1.293 0 0 0 285.645 71.094 A 0.335 0.335 0 0 0 285.618 71.095 Q 285.279 71.122 284.14 71.803 A 30.636 30.636 0 0 0 283.545 72.168 Q 282.584 72.772 281.437 73.454 A 148.755 148.755 0 0 1 279.541 74.561 Q 277.246 75.879 274.903 76.953 A 15.95 15.95 0 0 1 273.584 77.492 Q 272.071 78.027 270.899 78.027 A 4.238 4.238 0 0 1 270.825 78.027 Q 270.279 78.017 269.941 77.865 A 0.851 0.851 0 0 1 269.434 77.295 A 4.726 4.726 0 0 1 269.353 76.933 Q 269.238 76.311 269.238 75.488 A 9.937 9.937 0 0 1 269.434 73.535 L 269.824 71.582 Q 270.801 67.48 272.217 63.574 A 255.383 255.383 0 0 1 275.195 55.762 A 1983.853 1983.853 0 0 0 278.32 47.9 Q 279.883 43.945 281.055 39.941 Q 281.641 38.184 281.836 36.426 A 32.706 32.706 0 0 0 282.031 32.813 A 3.526 3.526 0 0 0 281.516 30.974 A 4.815 4.815 0 0 0 280.713 29.98 A 5.364 5.364 0 0 0 280.017 29.41 A 3.809 3.809 0 0 0 277.832 28.711 Q 276.267 28.711 274.546 29.21 A 17.447 17.447 0 0 0 272.119 30.127 Q 269.043 31.543 266.016 33.643 Q 262.988 35.742 260.352 38.135 A 175.555 175.555 0 0 0 258.78 39.578 Q 257.135 41.107 255.86 42.383 Q 256.348 40.43 256.641 38.477 Q 256.934 36.523 256.934 34.57 A 18.878 18.878 0 0 0 256.787 32.227 A 7.955 7.955 0 0 0 256.65 31.441 A 6.379 6.379 0 0 0 256.201 30.127 A 3.468 3.468 0 0 0 255.822 29.504 A 3.742 3.742 0 0 0 254.834 28.613 A 3.224 3.224 0 0 0 254.446 28.404 Q 253.617 28.027 252.442 28.027 A 6.973 6.973 0 0 0 250.383 28.349 A 9.339 9.339 0 0 0 248.633 29.102 A 18.797 18.797 0 0 0 247.666 29.672 A 21.142 21.142 0 0 0 244.873 31.787 Q 243.067 33.398 241.504 35.156 A 236.875 236.875 0 0 0 240.575 36.207 Q 239.606 37.311 238.867 38.184 A 2.538 2.538 0 0 1 238.9 38.067 Q 239.024 37.655 239.404 36.768 A 25.344 25.344 0 0 0 239.648 36.179 A 29.546 29.546 0 0 0 240.235 34.57 A 174.454 174.454 0 0 1 240.613 33.447 A 133.783 133.783 0 0 1 240.967 32.422 Q 241.234 31.659 241.292 31.313 A 0.999 0.999 0 0 0 241.309 31.152 Q 241.309 30.786 240.924 30.392 A 3.064 3.064 0 0 0 240.625 30.127 A 5.056 5.056 0 0 0 240.347 29.922 Q 240.038 29.712 239.801 29.635 A 0.813 0.813 0 0 0 239.551 29.59 A 1.132 1.132 0 0 0 239.006 29.728 A 1.44 1.44 0 0 0 238.672 29.98 A 11.271 11.271 0 0 0 238.255 30.422 Q 237.564 31.191 236.817 32.275 Q 235.84 33.691 234.912 35.205 A 40.817 40.817 0 0 0 233.203 38.281 L 231.836 41.016 Q 230.371 43.848 229.102 46.729 A 181.401 181.401 0 0 1 226.465 52.441 A 157.59 157.59 0 0 0 221.143 64.746 Q 218.75 70.996 217.09 77.441 Q 217.09 77.637 216.944 78.223 A 34.563 34.563 0 0 0 216.797 78.833 A 43.035 43.035 0 0 0 216.651 79.492 A 31.562 31.562 0 0 1 216.641 79.536 Q 216.57 79.864 216.499 80.158 A 19.228 19.228 0 0 1 216.358 80.713 Q 216.239 81.149 216.216 81.296 A 0.372 0.372 0 0 0 216.211 81.348 Q 216.211 81.738 216.846 82.227 Q 217.243 82.532 217.582 82.646 A 1.212 1.212 0 0 0 217.969 82.715 A 1.485 1.485 0 0 0 218.054 82.712 Q 218.548 82.684 218.833 82.32 A 1.449 1.449 0 0 0 219.043 81.934 Q 220.02 79.492 220.85 77.002 A 56.986 56.986 0 0 1 222.754 72.07 A 216.658 216.658 0 0 1 226.611 63.281 A 265.172 265.172 0 0 1 230.86 54.59 A 7.393 7.393 0 0 0 231.038 54.275 A 8.695 8.695 0 0 0 231.397 53.516 A 18.723 18.723 0 0 1 231.934 52.344 Q 232.01 52.344 232.147 52.223 A 1.717 1.717 0 0 0 232.227 52.148 Q 233.887 50.293 236.328 47.217 Q 238.77 44.141 241.504 41.064 A 65.391 65.391 0 0 1 243.218 39.209 A 55.018 55.018 0 0 1 247.022 35.596 Q 248.761 34.1 250.329 33.349 A 8.001 8.001 0 0 1 252.149 32.715 A 3.558 3.558 0 0 0 252.197 33.301 A 2.925 2.925 0 0 1 252.21 33.385 Q 252.228 33.515 252.237 33.663 A 5.287 5.287 0 0 1 252.246 33.984 A 21.774 21.774 0 0 1 251.758 38.525 Q 251.27 40.82 250.684 43.066 A 318.374 318.374 0 0 1 247.754 53.613 A 2433.674 2433.674 0 0 0 243.897 65.283 Q 241.992 71.094 240.625 77.148 Q 240.54 77.234 240.342 78.104 A 29.714 29.714 0 0 0 240.283 78.369 Q 240.07 79.352 240.043 79.549 A 0.345 0.345 0 0 0 240.039 79.59 A 0.753 0.753 0 0 0 240.041 79.645 Q 240.066 79.98 240.389 80.315 A 2.589 2.589 0 0 0 240.674 80.566 Q 241.071 80.872 241.41 80.986 A 1.212 1.212 0 0 0 241.797 81.055 A 1.106 1.106 0 0 0 242.6 80.73 A 1.627 1.627 0 0 0 242.871 80.371 A 17.286 17.286 0 0 0 243.258 79.764 A 19.342 19.342 0 0 0 244.58 77.148 A 82.993 82.993 0 0 1 246.094 73.73 A 131.423 131.423 0 0 0 250.586 61.816 Q 252.539 55.762 254.102 49.609 A 290.963 290.963 0 0 1 262.305 43.018 A 148.246 148.246 0 0 1 270.801 36.914 Q 271.533 36.426 272.514 35.918 A 30.111 30.111 0 0 1 273.779 35.303 A 32.981 32.981 0 0 1 274.602 34.938 Q 275.907 34.381 276.953 34.082 A 14.121 14.121 0 0 1 276.719 36.579 A 19.372 19.372 0 0 1 276.123 38.965 A 402.744 402.744 0 0 1 275.893 39.695 Q 275.551 40.772 275.236 41.746 A 240.747 240.747 0 0 1 274.61 43.652 Q 273.938 45.544 273.057 47.875 A 357.796 357.796 0 0 1 271.924 50.83 Q 270.313 54.98 268.799 59.326 A 122.727 122.727 0 0 0 268.07 61.484 A 108.542 108.542 0 0 0 266.211 67.773 Q 265.137 71.875 265.137 74.902 A 11.409 11.409 0 0 0 265.295 76.837 A 8.536 8.536 0 0 0 266.358 79.785 Q 267.578 81.836 270.703 81.836 A 8.946 8.946 0 0 0 272.412 81.665 A 11.684 11.684 0 0 0 274.219 81.152 A 6.261 6.261 0 0 0 274.453 81.058 Q 275.058 80.803 276.188 80.217 A 80.954 80.954 0 0 0 277.1 79.736 A 113.821 113.821 0 0 0 278.159 79.163 A 130.337 130.337 0 0 0 281.445 77.295 A 43.567 43.567 0 0 0 283.557 75.977 A 32.863 32.863 0 0 0 285.401 74.658 A 14.638 14.638 0 0 0 285.817 74.325 Q 286.727 73.569 286.996 73.051 Z M 340.625 31.348 L 340.528 31.641 A 1037.97 1037.97 0 0 0 344.385 31.055 A 25.331 25.331 0 0 1 348.242 30.762 A 17.747 17.747 0 0 1 348.919 30.776 Q 349.738 30.808 350.879 30.908 Q 352.539 31.055 353.418 31.445 Q 353.809 31.641 354.053 32.227 A 4.356 4.356 0 0 1 354.182 32.574 Q 354.297 32.935 354.297 33.203 A 1.357 1.357 0 0 1 354.26 33.508 Q 354.228 33.647 354.168 33.795 A 2.336 2.336 0 0 1 354.151 33.838 A 1 1 0 0 1 353.814 34.254 A 1.38 1.38 0 0 1 353.613 34.375 A 21.815 21.815 0 0 1 347.639 36.104 A 25.586 25.586 0 0 1 346.094 36.279 A 389.066 389.066 0 0 0 342.09 36.633 A 335.882 335.882 0 0 0 338.281 37.012 A 366.504 366.504 0 0 0 331.934 54.199 A 2696.774 2696.774 0 0 0 326.074 71.582 A 272.646 272.646 0 0 0 322.266 83.984 A 258.633 258.633 0 0 1 318.457 96.338 Q 316.406 102.441 313.77 108.35 Q 311.133 114.258 307.422 119.629 A 37.762 37.762 0 0 1 303.467 124.268 Q 301.27 126.465 298.682 128.125 A 24.564 24.564 0 0 1 293.164 130.762 A 18.723 18.723 0 0 1 287.207 131.738 Q 283.496 131.738 279.834 130.42 A 32.876 32.876 0 0 1 272.901 126.953 Q 269.629 124.805 266.895 121.973 A 33.269 33.269 0 0 1 263.159 117.369 A 29.739 29.739 0 0 1 262.305 116.016 A 9.713 9.713 0 0 1 262.229 115.778 Q 262.13 115.453 262.113 115.293 A 0.567 0.567 0 0 1 262.11 115.234 A 1.246 1.246 0 0 1 262.496 114.307 A 1.531 1.531 0 0 1 262.549 114.258 Q 262.988 113.867 263.574 113.867 A 1.608 1.608 0 0 1 264.468 114.144 A 2.359 2.359 0 0 1 264.844 114.453 A 444.09 444.09 0 0 0 265.601 115.491 A 358.951 358.951 0 0 0 266.309 116.455 Q 266.992 117.383 267.774 118.359 A 35.687 35.687 0 0 0 275.293 124.414 A 25.03 25.03 0 0 0 284.375 127.734 Q 284.961 127.832 285.547 127.881 A 14.105 14.105 0 0 0 286.719 127.93 A 15.805 15.805 0 0 0 293.799 126.318 A 23.132 23.132 0 0 0 299.805 122.021 A 32.847 32.847 0 0 0 303.894 117.11 A 37.336 37.336 0 0 0 304.736 115.82 A 78.267 78.267 0 0 0 308.74 108.594 A 74.924 74.924 0 0 0 311.699 101.679 A 68.748 68.748 0 0 0 311.865 101.221 Q 313.184 97.559 314.16 94.531 A 305.528 305.528 0 0 0 317.774 82.275 A 305.528 305.528 0 0 1 321.387 70.02 A 1562.787 1562.787 0 0 0 326.709 53.76 Q 329.297 45.703 332.324 37.695 Q 329.102 37.988 325.879 38.184 A 106.519 106.519 0 0 1 319.434 38.379 Q 319.043 38.379 318.701 37.744 Q 318.36 37.109 318.36 36.719 A 1.856 1.856 0 0 1 318.416 36.242 Q 318.57 35.663 319.141 35.449 Q 320.313 35.156 321.533 34.961 A 373.443 373.443 0 0 0 323.926 34.57 A 211.731 211.731 0 0 1 329.102 33.643 Q 331.738 33.203 334.375 32.715 Q 334.668 31.836 335.01 31.006 A 24.234 24.234 0 0 1 335.742 29.395 Q 337.793 24.219 340.723 19.189 A 48.57 48.57 0 0 1 347.51 10.107 Q 351.367 6.055 356.25 3.32 A 27.289 27.289 0 0 1 366.992 0 L 367.383 0 Q 367.969 0 368.408 0.439 A 1.531 1.531 0 0 1 368.727 0.892 A 1.376 1.376 0 0 1 368.848 1.465 A 1.635 1.635 0 0 1 368.732 2.096 Q 368.558 2.515 368.124 2.768 A 2.17 2.17 0 0 1 367.774 2.93 A 42.373 42.373 0 0 1 366.174 3.552 A 31.804 31.804 0 0 1 364.697 4.053 A 20.442 20.442 0 0 0 363.22 4.578 Q 362.451 4.883 361.621 5.273 A 31.31 31.31 0 0 0 354.541 10.107 Q 351.367 12.988 348.779 16.406 A 52.138 52.138 0 0 0 344.19 23.633 A 82.146 82.146 0 0 0 340.625 31.348 Z M 170.41 79.785 L 168.848 79.785 A 40.822 40.822 0 0 0 158.838 81.201 A 78.301 78.301 0 0 0 149.317 84.473 A 25.578 25.578 0 0 0 146.973 85.596 A 20.786 20.786 0 0 1 144.531 86.719 L 144.238 86.719 A 1.349 1.349 0 0 1 143.562 86.531 Q 143.37 86.421 143.184 86.248 A 2.667 2.667 0 0 1 143.115 86.182 A 2.242 2.242 0 0 1 142.821 85.824 Q 142.658 85.574 142.604 85.315 A 1.266 1.266 0 0 1 142.578 85.059 A 1.663 1.663 0 0 1 142.693 84.46 A 2.042 2.042 0 0 1 142.774 84.277 Q 144.922 81.641 147.852 79.834 A 30.454 30.454 0 0 1 154.102 76.904 A 37.431 37.431 0 0 1 160.889 75.293 A 49.299 49.299 0 0 1 166.157 74.828 A 43.625 43.625 0 0 1 167.578 74.805 A 31.683 31.683 0 0 1 169.336 74.854 A 31.683 31.683 0 0 0 171.094 74.902 Q 174.805 66.309 178.272 57.617 Q 181.738 48.926 184.766 39.941 Q 187.305 32.324 189.16 24.658 Q 191.016 16.992 193.555 9.375 L 193.457 9.375 Q 188.281 9.375 183.447 10.693 Q 178.613 12.012 173.926 14.063 A 49.177 49.177 0 0 0 171.838 14.992 A 54.152 54.152 0 0 0 171.533 15.137 A 50.381 50.381 0 0 1 169.435 16.087 A 45.716 45.716 0 0 1 169.141 16.211 L 168.848 16.309 A 1.3 1.3 0 0 1 168.262 16.162 Q 168.07 16.066 167.877 15.907 A 2.914 2.914 0 0 1 167.676 15.723 Q 167.284 15.331 167.154 14.939 A 1.228 1.228 0 0 1 167.09 14.551 A 0.932 0.932 0 0 1 167.364 13.886 A 1.224 1.224 0 0 1 167.383 13.867 A 22.321 22.321 0 0 1 172.608 9.375 A 28.101 28.101 0 0 1 178.955 6.445 Q 182.324 5.371 185.84 4.883 Q 189.356 4.395 192.676 4.395 A 133.568 133.568 0 0 1 201.563 4.688 A 133.568 133.568 0 0 0 210.449 4.98 A 81.508 81.508 0 0 0 215.332 4.834 Q 217.774 4.688 220.215 4.297 Q 220.899 4.102 221.533 4.004 Q 222.168 3.906 222.754 3.711 A 52.521 52.521 0 0 1 223.19 3.539 Q 223.396 3.458 223.581 3.389 A 31.357 31.357 0 0 1 223.633 3.369 A 2.277 2.277 0 0 1 224.159 3.243 A 2.919 2.919 0 0 1 224.512 3.223 A 0.954 0.954 0 0 1 224.925 3.323 Q 225.204 3.456 225.498 3.766 A 3.401 3.401 0 0 1 225.537 3.809 A 3.029 3.029 0 0 1 225.797 4.13 Q 226.074 4.532 226.074 4.883 Q 226.074 5.664 225.488 5.957 Q 222.461 7.422 218.897 8.154 Q 215.332 8.887 211.621 9.18 Q 207.91 9.473 204.248 9.424 A 564.436 564.436 0 0 0 200.672 9.387 A 487.274 487.274 0 0 0 197.266 9.375 A 84.883 84.883 0 0 1 196.081 18.284 A 108.227 108.227 0 0 1 194.434 25.684 A 178.34 178.34 0 0 1 188.965 43.066 A 252.948 252.948 0 0 1 181.983 60.01 A 294.675 294.675 0 0 1 178.259 67.883 A 228.197 228.197 0 0 1 174.61 75 A 178.02 178.02 0 0 0 180.42 75.293 Q 183.301 75.391 186.133 75.391 A 79.089 79.089 0 0 0 190.967 75.244 Q 193.36 75.098 195.703 74.707 A 13.241 13.241 0 0 1 196.362 74.536 A 10.112 10.112 0 0 1 196.973 74.414 A 10.112 10.112 0 0 0 197.583 74.292 A 13.241 13.241 0 0 0 198.242 74.121 A 3.383 3.383 0 0 0 198.642 74.017 Q 198.85 73.948 199.024 73.855 A 2.011 2.011 0 0 0 199.072 73.828 A 1.432 1.432 0 0 1 199.503 73.67 Q 199.683 73.634 199.889 73.633 A 2.434 2.434 0 0 1 199.903 73.633 A 0.886 0.886 0 0 1 200.299 73.734 Q 200.574 73.871 200.864 74.194 A 3.507 3.507 0 0 1 200.928 74.268 Q 201.421 74.85 201.461 75.309 A 0.924 0.924 0 0 1 201.465 75.391 Q 201.465 76.172 200.879 76.465 A 28.94 28.94 0 0 1 195.446 78.362 A 32.929 32.929 0 0 1 194.092 78.662 A 56.471 56.471 0 0 1 186.621 79.639 A 98.675 98.675 0 0 1 180.308 79.842 A 96.613 96.613 0 0 1 179.053 79.834 A 594.459 594.459 0 0 0 175.379 79.797 A 515.253 515.253 0 0 0 171.875 79.785 A 1.021 1.021 0 0 1 171.574 79.998 A 0.918 0.918 0 0 1 171.192 80.078 Q 170.801 80.078 170.41 79.785 Z M 610.728 34.399 A 0.585 0.585 0 0 0 610.742 34.277 Q 610.742 33.594 609.717 33.105 A 8.273 8.273 0 0 0 608.691 32.701 A 10.628 10.628 0 0 0 607.373 32.373 A 24.554 24.554 0 0 0 604.785 32.031 A 69.846 69.846 0 0 0 604.691 32.024 Q 603.805 31.957 603.266 31.94 A 10.541 10.541 0 0 0 602.93 31.934 Q 599.121 31.934 595.508 33.252 A 33.546 33.546 0 0 0 588.672 36.67 A 35.494 35.494 0 0 0 582.715 41.553 A 57.604 57.604 0 0 0 582.02 42.273 A 51.564 51.564 0 0 0 577.832 47.266 Q 574.414 52.148 572.705 57.91 A 40.672 40.672 0 0 0 570.996 69.531 Q 570.996 71.582 571.387 73.584 Q 571.778 75.586 572.705 77.295 A 10.226 10.226 0 0 0 575.147 80.273 A 7.702 7.702 0 0 0 576.851 81.351 A 9.748 9.748 0 0 0 578.906 82.031 Q 578.974 82.099 579.089 82.12 A 0.623 0.623 0 0 0 579.199 82.129 L 579.492 82.129 A 24.218 24.218 0 0 0 581.329 82.06 A 20.273 20.273 0 0 0 588.574 80.176 Q 592.676 78.223 596.192 74.805 A 1022.921 1022.921 0 0 0 594.971 78.491 A 1330.248 1330.248 0 0 0 593.653 82.52 A 252.436 252.436 0 0 1 593.307 83.573 A 279.7 279.7 0 0 1 590.674 91.162 Q 589.063 95.605 587.158 100.098 A 104.829 104.829 0 0 1 583.057 108.691 A 85.239 85.239 0 0 1 581.943 110.706 A 75.115 75.115 0 0 1 578.418 116.309 A 38.82 38.82 0 0 1 576.386 118.988 A 30.662 30.662 0 0 1 573.242 122.266 Q 569.727 125.488 565.137 125.488 A 14.934 14.934 0 0 1 563.402 125.388 A 15.444 15.444 0 0 1 557.471 123.389 A 21.989 21.989 0 0 1 551.27 118.164 A 8.649 8.649 0 0 1 551.227 118.115 A 7.826 7.826 0 0 1 550.147 116.504 A 45.747 45.747 0 0 0 549.219 114.746 A 2.048 2.048 0 0 0 548.929 114.416 A 1.28 1.28 0 0 0 548.047 114.063 Q 547.461 114.063 546.973 114.453 A 1.6 1.6 0 0 0 546.872 114.541 A 1.179 1.179 0 0 0 546.485 115.43 Q 546.485 115.718 546.538 115.847 A 0.217 0.217 0 0 0 546.582 115.918 Q 547.656 118.75 549.658 121.24 Q 551.66 123.73 554.199 125.537 Q 556.738 127.344 559.668 128.418 A 17.453 17.453 0 0 0 565.723 129.492 Q 571.582 129.492 576.074 125.488 Q 579.297 122.754 581.836 119.434 A 63.357 63.357 0 0 0 586.475 112.451 A 81.397 81.397 0 0 0 590.283 104.932 A 300.575 300.575 0 0 0 593.555 97.266 A 346.731 346.731 0 0 0 601.416 75.781 Q 604.981 64.941 607.422 53.711 Q 608.106 50.586 608.692 47.461 A 184.081 184.081 0 0 0 609.766 41.113 A 34.971 34.971 0 0 0 610.205 38.037 A 139.121 139.121 0 0 1 610.282 37.271 A 160.552 160.552 0 0 1 610.547 34.863 A 3.514 3.514 0 0 0 610.627 34.692 Q 610.701 34.522 610.728 34.399 Z M 491.211 39.16 L 491.113 39.355 A 149.678 149.678 0 0 1 489.356 46.436 A 116.171 116.171 0 0 1 487.207 53.418 A 58.566 58.566 0 0 1 486.67 54.858 A 80.496 80.496 0 0 1 486.035 56.445 Q 485.565 57.587 485.234 58.497 A 30.27 30.27 0 0 0 484.961 59.277 Q 484.766 59.961 484.717 60.645 A 19.477 19.477 0 0 1 484.57 62.012 A 85.513 85.513 0 0 1 483.936 65.088 Q 483.594 66.602 483.203 68.164 A 53.255 53.255 0 0 0 482.373 72.119 A 24.038 24.038 0 0 0 482.031 76.172 L 482.031 77.051 Q 482.031 77.441 482.129 77.832 A 2.01 2.01 0 0 0 482.676 77.75 Q 483.161 77.612 483.74 77.246 A 15.238 15.238 0 0 0 484.8 76.51 A 19.241 19.241 0 0 0 485.645 75.83 Q 486.621 75 487.451 74.121 A 125.535 125.535 0 0 1 487.845 73.706 Q 488.229 73.303 488.522 73.004 A 35.51 35.51 0 0 1 488.77 72.754 A 58.956 58.956 0 0 0 493.337 67.225 A 66.516 66.516 0 0 0 494.336 65.82 Q 495.02 65.039 495.557 64.111 Q 496.094 63.184 496.778 62.402 Q 497.07 61.914 497.656 61.914 A 1.596 1.596 0 0 1 498.813 62.387 A 1.96 1.96 0 0 1 498.828 62.402 Q 499.317 62.891 499.317 63.574 A 87.887 87.887 0 0 1 496.729 68.469 A 68.609 68.609 0 0 1 494.043 72.803 A 36.14 36.14 0 0 1 490.442 77.285 A 47.066 47.066 0 0 1 486.914 80.664 A 7.598 7.598 0 0 1 484.581 82.144 A 6.907 6.907 0 0 1 482.031 82.617 A 5.109 5.109 0 0 1 479.372 81.863 A 6.132 6.132 0 0 1 479.248 81.787 A 4.213 4.213 0 0 1 477.442 79.492 Q 477.255 79.026 477.202 78.203 A 8.963 8.963 0 0 1 477.197 78.125 A 310.463 310.463 0 0 1 477.149 77.222 A 363.426 363.426 0 0 1 477.1 76.27 A 19.311 19.311 0 0 1 477.075 75.305 A 17.882 17.882 0 0 1 477.1 74.365 A 48.602 48.602 0 0 0 477.121 73.923 Q 477.145 73.38 477.148 72.979 A 15.396 15.396 0 0 0 477.149 72.852 A 33.219 33.219 0 0 1 469.092 79.834 A 18.966 18.966 0 0 1 458.887 82.715 Q 458.594 82.715 458.057 82.52 Q 457.646 82.37 457.377 82.278 A 16.389 16.389 0 0 0 457.227 82.227 Q 454.981 81.152 453.858 78.809 Q 452.735 76.465 452.735 74.121 A 25.182 25.182 0 0 1 453.565 67.725 Q 454.395 64.551 455.811 61.572 Q 457.227 58.594 459.082 55.859 Q 460.938 53.125 462.988 50.684 A 59.906 59.906 0 0 1 475.098 39.307 A 63.179 63.179 0 0 1 489.942 31.543 Q 490.021 31.464 490.229 31.449 A 1.449 1.449 0 0 1 490.332 31.445 A 1.515 1.515 0 0 1 490.753 31.5 A 1.085 1.085 0 0 1 491.358 31.934 A 1.833 1.833 0 0 1 491.699 33.008 A 1.729 1.729 0 0 1 491.647 33.45 A 1.048 1.048 0 0 1 491.016 34.18 A 60.88 60.88 0 0 1 487.946 35.699 A 55.665 55.665 0 0 1 487.744 35.791 A 41.499 41.499 0 0 0 484.57 37.402 A 60.853 60.853 0 0 0 466.309 53.418 A 63.518 63.518 0 0 0 464.819 55.493 A 82.157 82.157 0 0 0 463.281 57.813 Q 461.719 60.254 460.449 62.842 A 35.443 35.443 0 0 0 458.35 68.164 A 19.413 19.413 0 0 0 457.636 71.506 A 16.317 16.317 0 0 0 457.52 73.438 Q 457.52 73.762 457.587 74.323 A 18.702 18.702 0 0 0 457.617 74.561 Q 457.715 75.293 457.91 76.025 A 3.497 3.497 0 0 0 458.272 76.903 A 3.105 3.105 0 0 0 458.545 77.295 A 1.696 1.696 0 0 0 458.865 77.601 A 1.182 1.182 0 0 0 459.57 77.832 A 11.216 11.216 0 0 0 464.499 76.67 A 13.395 13.395 0 0 0 465.088 76.367 Q 467.774 74.902 470.117 72.656 A 36.241 36.241 0 0 0 474.317 67.871 Q 476.172 65.332 477.344 63.086 A 91.369 91.369 0 0 0 481.348 54.834 A 2165.799 2165.799 0 0 0 484.863 46.484 Q 485.333 45.276 485.919 43.79 A 992.049 992.049 0 0 1 486.475 42.383 A 53.061 53.061 0 0 1 487.164 40.721 Q 487.519 39.906 487.867 39.195 A 28.621 28.621 0 0 1 488.281 38.379 A 1.283 1.283 0 0 1 489.202 37.726 A 1.91 1.91 0 0 1 489.551 37.695 A 1.996 1.996 0 0 1 490.186 37.793 A 1.729 1.729 0 0 1 490.723 38.086 A 1.27 1.27 0 0 1 491.205 39.014 A 1.787 1.787 0 0 1 491.211 39.16 Z M 392.481 69.141 Q 392.481 69.531 392.09 69.922 A 196.894 196.894 0 0 0 389.27 73.236 A 177.219 177.219 0 0 0 388.379 74.316 A 39.895 39.895 0 0 1 384.619 78.32 Q 382.617 80.176 380.225 81.543 A 18.505 18.505 0 0 1 376.546 83.128 A 22.371 22.371 0 0 1 374.805 83.594 A 8.472 8.472 0 0 1 372.341 81.943 Q 370.614 80.238 370.357 77.606 A 9.757 9.757 0 0 1 370.313 76.66 A 12.738 12.738 0 0 1 370.484 74.603 A 14.028 14.028 0 0 1 370.508 74.463 A 8.849 8.849 0 0 0 370.638 72.944 A 9.339 9.339 0 0 0 370.606 72.168 A 41.883 41.883 0 0 1 369.491 73.315 Q 368.488 74.31 367.236 75.439 Q 365.235 77.246 362.94 78.906 A 31.164 31.164 0 0 1 359.47 81.094 A 27.484 27.484 0 0 1 358.301 81.689 Q 356.128 82.731 354.207 82.807 A 7.613 7.613 0 0 1 353.906 82.813 A 10.936 10.936 0 0 1 351.993 82.655 Q 350.513 82.391 349.414 81.689 A 8.275 8.275 0 0 1 346.631 78.76 A 11.884 11.884 0 0 1 345.485 75.91 A 14.345 14.345 0 0 1 345.215 74.658 Q 344.824 72.363 344.824 70.117 Q 344.824 67.773 345.117 65.527 A 57.537 57.537 0 0 1 346.778 56.494 A 86.36 86.36 0 0 1 349.61 47.852 A 197.281 197.281 0 0 1 352.246 41.846 A 1033.334 1033.334 0 0 1 354.981 35.938 A 25.289 25.289 0 0 0 355.469 34.9 A 33.409 33.409 0 0 0 355.957 33.74 Q 356.445 32.52 357.031 31.738 A 2.003 2.003 0 0 1 357.356 31.378 A 1.27 1.27 0 0 1 358.203 31.055 A 1.172 1.172 0 0 1 358.616 31.135 Q 358.783 31.198 358.959 31.309 A 3.003 3.003 0 0 1 359.278 31.543 Q 359.611 31.821 359.755 32.099 A 0.909 0.909 0 0 1 359.863 32.52 A 5.38 5.38 0 0 1 359.841 32.986 Q 359.789 33.575 359.619 34.424 A 44.833 44.833 0 0 1 359.198 36.31 A 51.264 51.264 0 0 1 359.033 36.963 A 139.843 139.843 0 0 1 358.521 38.886 A 125.481 125.481 0 0 1 358.35 39.502 A 26.804 26.804 0 0 1 358.141 40.212 Q 357.94 40.86 357.758 41.304 A 7.147 7.147 0 0 1 357.715 41.406 Q 356.641 44.922 355.225 48.389 A 129.86 129.86 0 0 0 352.588 55.42 A 71.672 71.672 0 0 0 350.537 62.598 A 32.608 32.608 0 0 0 349.707 69.922 Q 349.707 70.845 349.779 72.021 A 51.745 51.745 0 0 0 349.805 72.412 A 12.662 12.662 0 0 0 350.293 75.146 A 6.152 6.152 0 0 0 350.932 76.608 A 5.345 5.345 0 0 0 351.514 77.393 Q 352.344 78.32 353.809 78.32 Q 355.309 78.32 357.126 77.543 A 15.171 15.171 0 0 0 358.252 77.002 Q 360.742 75.684 363.233 73.877 A 68.632 68.632 0 0 0 367.969 70.117 A 252.02 252.02 0 0 0 369.037 69.183 Q 370.343 68.035 371.284 67.17 A 78.653 78.653 0 0 0 371.582 66.895 A 107.188 107.188 0 0 1 372.546 62.732 Q 373.093 60.557 373.777 58.16 A 178.581 178.581 0 0 1 373.975 57.471 A 124.736 124.736 0 0 1 377.539 46.973 Q 379.59 41.699 382.031 36.963 A 46.75 46.75 0 0 1 384.406 32.855 Q 385.713 30.85 387.117 29.22 A 28.774 28.774 0 0 1 387.305 29.004 A 2.201 2.201 0 0 1 387.602 28.752 Q 387.942 28.516 388.281 28.516 A 1.54 1.54 0 0 1 388.936 28.668 Q 389.146 28.766 389.356 28.926 A 2.948 2.948 0 0 1 389.453 29.004 A 1.785 1.785 0 0 1 389.81 29.398 A 1.395 1.395 0 0 1 390.039 30.176 Q 389.942 30.273 389.942 30.371 A 169.424 169.424 0 0 1 387.903 35.754 A 219.714 219.714 0 0 1 385.498 41.553 A 289.379 289.379 0 0 0 380.567 53.76 A 132.805 132.805 0 0 0 376.563 66.113 A 48.958 48.958 0 0 0 375.176 73.213 A 40.011 40.011 0 0 0 374.903 77.832 A 6.293 6.293 0 0 0 374.951 78.613 A 0.706 0.706 0 0 0 375.267 79.126 A 1.029 1.029 0 0 0 375.391 79.199 Q 377.253 78.875 379.283 77.545 A 17.162 17.162 0 0 0 380.127 76.953 A 50.13 50.13 0 0 0 384.815 72.998 Q 387.012 70.898 388.672 69.238 Q 390.301 67.61 390.802 67.579 A 0.308 0.308 0 0 1 390.82 67.578 A 1.469 1.469 0 0 1 391.549 67.777 A 2.172 2.172 0 0 1 391.944 68.066 Q 392.481 68.555 392.481 69.141 Z M 662.403 69.141 Q 662.403 69.531 662.012 69.922 A 196.894 196.894 0 0 0 659.192 73.236 A 177.219 177.219 0 0 0 658.301 74.316 A 39.895 39.895 0 0 1 654.541 78.32 Q 652.539 80.176 650.147 81.543 A 18.505 18.505 0 0 1 646.468 83.128 A 22.371 22.371 0 0 1 644.727 83.594 A 8.472 8.472 0 0 1 642.262 81.943 Q 640.536 80.238 640.279 77.606 A 9.757 9.757 0 0 1 640.235 76.66 A 12.738 12.738 0 0 1 640.406 74.603 A 14.028 14.028 0 0 1 640.43 74.463 A 8.849 8.849 0 0 0 640.56 72.944 A 9.339 9.339 0 0 0 640.528 72.168 A 41.883 41.883 0 0 1 639.413 73.315 Q 638.41 74.31 637.158 75.439 Q 635.156 77.246 632.861 78.906 A 31.164 31.164 0 0 1 629.392 81.094 A 27.484 27.484 0 0 1 628.223 81.689 Q 626.05 82.731 624.129 82.807 A 7.613 7.613 0 0 1 623.828 82.813 A 10.936 10.936 0 0 1 621.915 82.655 Q 620.435 82.391 619.336 81.689 A 8.275 8.275 0 0 1 616.553 78.76 A 11.884 11.884 0 0 1 615.407 75.91 A 14.345 14.345 0 0 1 615.137 74.658 Q 614.746 72.363 614.746 70.117 Q 614.746 67.773 615.039 65.527 A 57.537 57.537 0 0 1 616.699 56.494 A 86.36 86.36 0 0 1 619.531 47.852 A 197.281 197.281 0 0 1 622.168 41.846 A 1033.334 1033.334 0 0 1 624.903 35.938 A 25.289 25.289 0 0 0 625.391 34.9 A 33.409 33.409 0 0 0 625.879 33.74 Q 626.367 32.52 626.953 31.738 A 2.003 2.003 0 0 1 627.278 31.378 A 1.27 1.27 0 0 1 628.125 31.055 A 1.172 1.172 0 0 1 628.538 31.135 Q 628.705 31.198 628.881 31.309 A 3.003 3.003 0 0 1 629.199 31.543 Q 629.533 31.821 629.677 32.099 A 0.909 0.909 0 0 1 629.785 32.52 A 5.38 5.38 0 0 1 629.763 32.986 Q 629.711 33.575 629.541 34.424 A 44.833 44.833 0 0 1 629.12 36.31 A 51.264 51.264 0 0 1 628.955 36.963 A 139.843 139.843 0 0 1 628.443 38.886 A 125.481 125.481 0 0 1 628.272 39.502 A 26.804 26.804 0 0 1 628.063 40.212 Q 627.862 40.86 627.68 41.304 A 7.147 7.147 0 0 1 627.637 41.406 Q 626.563 44.922 625.147 48.389 A 129.86 129.86 0 0 0 622.51 55.42 A 71.672 71.672 0 0 0 620.459 62.598 A 32.608 32.608 0 0 0 619.629 69.922 Q 619.629 70.845 619.701 72.021 A 51.745 51.745 0 0 0 619.727 72.412 A 12.662 12.662 0 0 0 620.215 75.146 A 6.152 6.152 0 0 0 620.854 76.608 A 5.345 5.345 0 0 0 621.436 77.393 Q 622.266 78.32 623.731 78.32 Q 625.231 78.32 627.048 77.543 A 15.171 15.171 0 0 0 628.174 77.002 Q 630.664 75.684 633.154 73.877 A 68.632 68.632 0 0 0 637.891 70.117 A 252.02 252.02 0 0 0 638.959 69.183 Q 640.265 68.035 641.206 67.17 A 78.653 78.653 0 0 0 641.504 66.895 A 107.188 107.188 0 0 1 642.468 62.732 Q 643.014 60.557 643.698 58.16 A 178.581 178.581 0 0 1 643.897 57.471 A 124.736 124.736 0 0 1 647.461 46.973 Q 649.512 41.699 651.953 36.963 A 46.75 46.75 0 0 1 654.328 32.855 Q 655.635 30.85 657.039 29.22 A 28.774 28.774 0 0 1 657.227 29.004 A 2.201 2.201 0 0 1 657.524 28.752 Q 657.864 28.516 658.203 28.516 A 1.54 1.54 0 0 1 658.858 28.668 Q 659.068 28.766 659.278 28.926 A 2.948 2.948 0 0 1 659.375 29.004 A 1.785 1.785 0 0 1 659.732 29.398 A 1.395 1.395 0 0 1 659.961 30.176 Q 659.863 30.273 659.863 30.371 A 169.424 169.424 0 0 1 657.825 35.754 A 219.714 219.714 0 0 1 655.42 41.553 A 289.379 289.379 0 0 0 650.488 53.76 A 132.805 132.805 0 0 0 646.485 66.113 A 48.958 48.958 0 0 0 645.098 73.213 A 40.011 40.011 0 0 0 644.824 77.832 A 6.293 6.293 0 0 0 644.873 78.613 A 0.706 0.706 0 0 0 645.188 79.126 A 1.029 1.029 0 0 0 645.313 79.199 Q 647.175 78.875 649.205 77.545 A 17.162 17.162 0 0 0 650.049 76.953 A 50.13 50.13 0 0 0 654.736 72.998 Q 656.934 70.898 658.594 69.238 Q 660.223 67.61 660.723 67.579 A 0.308 0.308 0 0 1 660.742 67.578 A 1.469 1.469 0 0 1 661.471 67.777 A 2.172 2.172 0 0 1 661.865 68.066 Q 662.403 68.555 662.403 69.141 Z M 571.139 42.171 A 10.644 10.644 0 0 0 571.973 38.086 A 8.773 8.773 0 0 0 571.938 37.297 A 6.637 6.637 0 0 0 570.264 33.35 A 5.499 5.499 0 0 0 567.82 31.754 A 6.813 6.813 0 0 0 565.723 31.445 A 12.765 12.765 0 0 0 563.874 31.582 A 15.24 15.24 0 0 0 561.084 32.275 A 27.492 27.492 0 0 0 556.397 34.424 A 36.247 36.247 0 0 0 552.051 37.354 Q 550 38.965 548.438 40.527 Q 543.164 45.703 540.039 52.49 Q 536.914 59.277 536.914 66.699 A 22.754 22.754 0 0 0 536.915 66.855 Q 536.923 68.032 537.052 69.341 A 37.544 37.544 0 0 0 537.403 71.924 Q 537.891 74.805 539.063 77.295 A 12.364 12.364 0 0 0 542.236 81.494 A 6.875 6.875 0 0 0 544.894 82.899 A 8.832 8.832 0 0 0 547.266 83.203 A 9.592 9.592 0 0 0 549.034 83.04 A 10.259 10.259 0 0 0 552.49 81.689 A 21.273 21.273 0 0 0 553.108 81.3 A 23.091 23.091 0 0 0 557.129 77.93 Q 559.278 75.684 561.035 73.096 A 80.515 80.515 0 0 0 561.266 72.754 Q 562.065 71.565 562.738 70.47 A 47.461 47.461 0 0 0 563.965 68.359 A 3.514 3.514 0 0 0 564.045 68.188 Q 564.119 68.018 564.146 67.895 A 0.585 0.585 0 0 0 564.16 67.773 A 1.596 1.596 0 0 0 564.15 67.587 A 1.236 1.236 0 0 0 563.623 66.699 A 2.333 2.333 0 0 0 563.377 66.542 A 1.795 1.795 0 0 0 562.5 66.309 A 1.576 1.576 0 0 0 562.201 66.335 A 0.965 0.965 0 0 0 561.524 66.797 Q 561.035 67.48 560.596 68.164 A 13.891 13.891 0 0 1 560.485 68.333 A 12.595 12.595 0 0 1 559.668 69.434 A 45.752 45.752 0 0 1 558.759 70.7 A 51.707 51.707 0 0 1 555.664 74.463 A 21.814 21.814 0 0 1 554.517 75.644 A 18.289 18.289 0 0 1 550.781 78.418 A 9.5 9.5 0 0 1 550.525 78.559 A 8.368 8.368 0 0 1 549.414 79.053 A 4.041 4.041 0 0 1 549.099 79.151 A 4.432 4.432 0 0 1 547.949 79.297 A 6.014 6.014 0 0 1 546.973 79.221 A 4.3 4.3 0 0 1 544.629 78.076 A 8.194 8.194 0 0 1 543.94 77.326 A 9.039 9.039 0 0 1 542.627 75.098 A 13.341 13.341 0 0 1 542.537 74.877 A 14.264 14.264 0 0 1 541.651 71.338 A 40.947 40.947 0 0 1 541.587 70.784 Q 541.498 69.965 541.453 69.225 A 23.945 23.945 0 0 1 541.406 67.773 Q 541.406 62.988 543.018 58.203 Q 544.629 53.418 547.461 49.219 A 33.784 33.784 0 0 1 554.199 41.846 A 27.144 27.144 0 0 1 562.793 37.109 L 563.965 36.719 A 4.38 4.38 0 0 1 563.97 36.717 A 3.685 3.685 0 0 1 565.137 36.523 Q 566.264 36.523 566.524 37.333 A 1.825 1.825 0 0 1 566.602 37.891 A 5.808 5.808 0 0 1 566.48 39.057 Q 566.303 39.925 565.866 40.837 A 11.69 11.69 0 0 1 564.893 42.48 A 28.929 28.929 0 0 1 563.508 44.298 A 34.982 34.982 0 0 1 560.742 47.266 A 65.689 65.689 0 0 1 560.666 47.339 A 60.124 60.124 0 0 1 555.762 51.563 A 125.987 125.987 0 0 1 555.65 51.649 Q 553.186 53.539 551.563 54.59 A 46.727 46.727 0 0 1 551.029 54.877 A 41.795 41.795 0 0 1 549.463 55.664 A 8.337 8.337 0 0 1 547.363 56.348 Q 546.973 56.445 546.582 56.445 A 3.052 3.052 0 0 0 546.534 56.446 Q 546.173 56.451 545.899 56.543 Q 544.956 56.76 544.713 57.57 A 2.202 2.202 0 0 0 544.629 58.203 A 1.857 1.857 0 0 0 544.684 58.673 Q 544.788 59.069 545.088 59.279 A 1.263 1.263 0 0 0 545.557 59.473 A 9.742 9.742 0 0 0 546.394 59.613 A 7.276 7.276 0 0 0 547.266 59.668 A 13.862 13.862 0 0 0 553.955 58.008 A 63.605 63.605 0 0 0 559.863 54.395 Q 561.719 53.125 563.867 51.367 A 29.886 29.886 0 0 0 567.822 47.461 A 22.265 22.265 0 0 0 570.801 42.92 A 12.7 12.7 0 0 0 571.139 42.171 Z M 523.926 63.867 L 523.926 62.891 A 4.01 4.01 0 0 0 523.695 61.506 A 3.522 3.522 0 0 0 522.803 60.156 A 8.763 8.763 0 0 0 521.189 58.947 A 11.183 11.183 0 0 0 520.02 58.35 A 45.865 45.865 0 0 0 517.83 57.453 A 55.809 55.809 0 0 0 516.406 56.934 A 23.634 23.634 0 0 1 513.642 55.771 A 20.889 20.889 0 0 1 512.793 55.322 A 9.886 9.886 0 0 1 510.566 53.644 A 9.057 9.057 0 0 1 510.01 53.027 A 4.746 4.746 0 0 1 509.079 51.123 Q 508.911 50.442 508.89 49.644 A 8.717 8.717 0 0 1 508.887 49.414 Q 508.887 47.07 509.912 44.922 A 13.671 13.671 0 0 1 512.598 41.113 Q 518.36 35.547 525.83 33.057 Q 533.301 30.566 541.211 30.566 A 1.234 1.234 0 0 1 541.579 30.618 A 0.933 0.933 0 0 1 542.09 31.006 A 1.749 1.749 0 0 1 542.331 31.53 A 1.572 1.572 0 0 1 542.383 31.934 A 2.04 2.04 0 0 1 542.314 32.486 Q 542.099 33.25 541.211 33.398 A 2.279 2.279 0 0 1 540.817 33.518 Q 540.542 33.574 540.283 33.545 Q 539.908 33.503 539.497 33.568 A 3.578 3.578 0 0 0 539.356 33.594 A 25.981 25.981 0 0 0 537.061 33.887 A 330.686 330.686 0 0 1 534.766 34.277 Q 529.492 35.352 524.463 37.744 A 29.282 29.282 0 0 0 515.723 44.043 A 10.625 10.625 0 0 0 514.362 45.878 A 9.486 9.486 0 0 0 514.014 46.533 A 6.416 6.416 0 0 0 513.429 48.605 A 7.993 7.993 0 0 0 513.379 49.512 Q 513.379 50.586 514.551 51.172 A 17.461 17.461 0 0 0 515.505 51.611 Q 516.042 51.84 516.66 52.069 A 33.888 33.888 0 0 0 517.432 52.344 A 2802.959 2802.959 0 0 0 519.214 52.954 A 3550.358 3550.358 0 0 0 521.143 53.613 A 13.507 13.507 0 0 1 524.854 55.566 A 10.574 10.574 0 0 1 527.345 58.215 A 12.453 12.453 0 0 1 527.735 58.838 Q 528.906 60.84 528.906 63.965 A 18.037 18.037 0 0 1 527.539 70.898 Q 526.172 74.219 523.731 76.807 Q 521.289 79.395 518.067 80.908 A 15.884 15.884 0 0 1 511.231 82.422 A 13.517 13.517 0 0 1 508.02 82.056 A 10.875 10.875 0 0 1 505.225 80.957 A 13.97 13.97 0 0 1 500.879 77.148 A 16.559 16.559 0 0 1 498.312 72.058 A 18.733 18.733 0 0 1 498.242 71.826 A 21.454 21.454 0 0 1 497.363 65.723 Q 497.363 65.199 497.403 64.401 A 52.818 52.818 0 0 1 497.412 64.209 A 16.144 16.144 0 0 1 497.608 62.402 A 5.055 5.055 0 0 1 497.867 61.428 A 4.211 4.211 0 0 1 498.145 60.84 A 1.433 1.433 0 0 1 498.488 60.427 Q 498.783 60.19 499.196 60.16 A 1.686 1.686 0 0 1 499.317 60.156 A 1.397 1.397 0 0 1 499.809 60.251 Q 499.996 60.321 500.19 60.443 A 2.817 2.817 0 0 1 500.342 60.547 A 1.481 1.481 0 0 1 500.648 60.839 A 1.093 1.093 0 0 1 500.879 61.523 Q 500.879 63.734 501.4 66.419 A 35.675 35.675 0 0 0 501.416 66.504 A 20.043 20.043 0 0 0 502.876 71.065 A 18.581 18.581 0 0 0 503.125 71.582 A 12.038 12.038 0 0 0 506.25 75.537 A 7.01 7.01 0 0 0 510.046 77.096 A 9.188 9.188 0 0 0 511.035 77.148 A 11.169 11.169 0 0 0 515.918 76.025 Q 518.262 74.902 520.069 73.047 A 13.867 13.867 0 0 0 522.901 68.799 Q 523.926 66.406 523.926 63.867 Z M 92.774 75 L 92.774 71.484 A 26.406 26.406 0 0 1 93.076 67.566 A 30.516 30.516 0 0 1 93.311 66.211 A 166.402 166.402 0 0 1 94.288 61.575 A 150.368 150.368 0 0 1 94.434 60.938 A 323.777 323.777 0 0 1 95.374 56.982 A 404.636 404.636 0 0 1 96.436 52.734 A 107.427 107.427 0 0 1 99.072 43.994 A 79.747 79.747 0 0 1 102.539 35.596 Q 104.492 31.543 106.934 28.516 A 2.201 2.201 0 0 1 107.231 28.263 Q 107.571 28.027 107.91 28.027 A 1.698 1.698 0 0 1 108.606 28.182 Q 108.844 28.288 109.082 28.467 A 1.568 1.568 0 0 1 109.448 28.843 A 1.306 1.306 0 0 1 109.668 29.59 L 109.668 29.785 A 261.901 261.901 0 0 1 107.178 37.156 A 309.915 309.915 0 0 1 105.908 40.674 A 304.277 304.277 0 0 0 101.904 52.295 A 134.841 134.841 0 0 0 98.682 64.063 A 53.658 53.658 0 0 0 97.468 72.284 A 46.842 46.842 0 0 0 97.363 75.391 Q 97.363 75.839 97.392 76.574 A 73.661 73.661 0 0 0 97.412 77.051 Q 97.461 78.125 98.047 78.418 A 8.141 8.141 0 0 0 99.974 77.796 Q 101.242 77.216 102.588 76.172 A 52.212 52.212 0 0 0 107.08 72.266 Q 108.885 70.503 110.292 69.029 A 89.419 89.419 0 0 0 110.742 68.555 Q 111.982 67.238 112.607 66.966 A 0.73 0.73 0 0 1 112.891 66.895 A 1.131 1.131 0 0 1 113.339 66.993 Q 113.506 67.065 113.678 67.189 A 2.709 2.709 0 0 1 113.916 67.383 A 2.314 2.314 0 0 1 114.176 67.657 Q 114.302 67.817 114.37 67.976 A 0.96 0.96 0 0 1 114.453 68.359 A 1.321 1.321 0 0 1 114.412 68.698 A 0.962 0.962 0 0 1 114.16 69.141 A 193.805 193.805 0 0 0 110.596 73.584 Q 108.887 75.781 106.983 77.637 A 20.366 20.366 0 0 1 102.735 80.811 Q 100.391 82.129 97.363 82.715 A 10.015 10.015 0 0 1 95.755 81.828 Q 94.904 81.243 94.333 80.534 A 5.247 5.247 0 0 1 93.75 79.639 Q 92.836 77.857 92.778 75.348 A 14.871 14.871 0 0 1 92.774 75 Z M 607.324 35.449 A 11.197 11.197 0 0 0 605.658 35.144 A 15.208 15.208 0 0 0 604.004 35.059 A 18.73 18.73 0 0 0 597.266 36.328 Q 593.945 37.598 591.016 39.697 Q 588.086 41.797 585.645 44.434 A 53.618 53.618 0 0 0 582.565 48.059 A 45.587 45.587 0 0 0 581.348 49.707 Q 578.613 53.809 577.197 58.789 A 36.274 36.274 0 0 0 575.781 68.75 Q 575.781 69.572 575.867 70.624 A 36.766 36.766 0 0 0 575.928 71.289 A 12.868 12.868 0 0 0 576.46 73.907 A 11.951 11.951 0 0 0 576.514 74.072 A 5.736 5.736 0 0 0 577.55 75.957 A 5.477 5.477 0 0 0 577.881 76.318 A 3.129 3.129 0 0 0 579.829 77.223 A 4.258 4.258 0 0 0 580.274 77.246 A 12.789 12.789 0 0 0 585.799 75.969 A 14.981 14.981 0 0 0 586.182 75.781 A 23.703 23.703 0 0 0 591.504 72.07 A 29.252 29.252 0 0 0 595.85 67.041 A 42.453 42.453 0 0 0 597.571 64.319 A 32.034 32.034 0 0 0 598.926 61.719 A 82.85 82.85 0 0 0 603.662 48.73 Q 605.469 42.09 607.324 35.449 Z M 230.794 11.022 A 6.312 6.312 0 0 0 231.738 7.715 A 2.323 2.323 0 0 0 231.734 7.573 A 1.74 1.74 0 0 0 231.104 6.299 A 2.687 2.687 0 0 0 231.044 6.25 A 2.123 2.123 0 0 0 229.688 5.762 A 1.753 1.753 0 0 0 229.682 5.762 Q 228.805 5.765 227.735 6.641 A 11.164 11.164 0 0 0 227.191 7.114 Q 226.87 7.414 226.621 7.701 A 4.855 4.855 0 0 0 226.172 8.301 A 18.576 18.576 0 0 0 225.875 8.785 Q 225.268 9.806 224.711 11.027 A 33.286 33.286 0 0 0 223.682 13.574 A 56.996 56.996 0 0 0 223.377 14.443 Q 222.94 15.725 222.616 16.884 A 31.108 31.108 0 0 0 222.07 19.141 A 2.496 2.496 0 0 0 222.083 19.153 Q 222.25 19.317 222.775 19.78 A 94.539 94.539 0 0 0 223.047 20.02 A 15.529 15.529 0 0 0 223.136 20.097 Q 223.688 20.572 223.92 20.675 A 0.273 0.273 0 0 0 224.024 20.703 A 0.507 0.507 0 0 0 224.098 20.697 Q 224.137 20.691 224.181 20.68 A 1.274 1.274 0 0 0 224.268 20.654 A 1.261 1.261 0 0 1 224.359 20.628 Q 224.401 20.617 224.439 20.611 A 0.505 0.505 0 0 1 224.512 20.605 Q 226.953 17.383 229.004 13.77 A 18.03 18.03 0 0 1 229.834 12.451 A 93.319 93.319 0 0 0 230.051 12.137 A 81.428 81.428 0 0 0 230.664 11.23 A 7.609 7.609 0 0 0 230.794 11.022 Z M 114.649 7.422 L 114.551 7.715 A 6.646 6.646 0 0 1 114.636 7.99 Q 114.746 8.374 114.746 8.594 A 4.359 4.359 0 0 0 114.29 8.966 Q 114.069 9.174 113.914 9.39 A 2.218 2.218 0 0 0 113.77 9.619 A 0.867 0.867 0 0 1 113.369 9.984 Q 113.053 10.136 112.541 10.154 A 3.997 3.997 0 0 1 112.403 10.156 A 2.309 2.309 0 0 1 111.421 9.928 Q 111.105 9.781 110.79 9.54 A 4.423 4.423 0 0 1 110.645 9.424 Q 109.766 8.691 109.766 7.617 A 14.937 14.937 0 0 1 109.806 6.484 Q 109.883 5.473 110.108 4.736 Q 110.412 3.738 112.222 3.627 A 7.786 7.786 0 0 1 112.695 3.613 A 2.045 2.045 0 0 1 113.769 3.926 Q 114.05 4.096 114.32 4.359 A 3.87 3.87 0 0 1 114.356 4.395 A 3.164 3.164 0 0 1 114.8 4.943 Q 115.078 5.384 115.126 5.853 A 1.949 1.949 0 0 1 115.137 6.055 Q 115.137 6.471 114.89 6.986 A 4.461 4.461 0 0 1 114.649 7.422 Z M 114.942 77.93 L 114.844 78.125 A 1.881 1.881 0 0 1 115.002 78.564 A 1.595 1.595 0 0 1 115.039 78.906 A 3.904 3.904 0 0 0 114.621 79.248 Q 114.416 79.442 114.277 79.643 A 1.846 1.846 0 0 0 114.111 79.932 A 0.761 0.761 0 0 1 113.744 80.296 Q 113.456 80.442 112.979 80.464 A 3.868 3.868 0 0 1 112.793 80.469 A 2.559 2.559 0 0 1 111.33 80.004 A 3.437 3.437 0 0 1 110.986 79.736 A 2.695 2.695 0 0 1 110.473 79.14 A 2.07 2.07 0 0 1 110.156 78.027 Q 110.156 76.367 110.449 75.293 Q 110.742 74.219 112.793 74.219 A 2.531 2.531 0 0 1 113.741 74.412 Q 114.165 74.582 114.6 74.902 A 2.45 2.45 0 0 1 115.174 75.483 A 2.028 2.028 0 0 1 115.528 76.66 A 1.115 1.115 0 0 1 115.47 76.994 Q 115.344 77.393 114.942 77.93 Z" vector-effect="non-scaling-stroke"/></g></svg>